<svg width="99" height="29" viewBox="0 0 99 29" fill="none" xmlns="http://www.w3.org/2000/svg">
<path d="M37.7638 23H34.0478L34.0713 20.257H37.7638C38.686 20.257 39.4636 20.0499 40.0966 19.6357C40.7296 19.2137 41.2063 18.6002 41.5267 17.7953C41.8549 16.9903 42.019 16.0174 42.019 14.8764V14.0441C42.019 13.1688 41.9253 12.3991 41.7377 11.7348C41.558 11.0705 41.2883 10.5118 40.9288 10.0585C40.5694 9.60524 40.1278 9.26529 39.6042 9.03865C39.0806 8.80421 38.4789 8.68698 37.799 8.68698H33.9775V5.93223H37.799C38.94 5.93223 39.9832 6.1276 40.9288 6.51834C41.8823 6.90127 42.7067 7.45223 43.4023 8.1712C44.0978 8.89017 44.6331 9.74981 45.0082 10.7501C45.3912 11.7426 45.5826 12.8484 45.5826 14.0676V14.8764C45.5826 16.0877 45.3912 17.1935 45.0082 18.1938C44.6331 19.1941 44.0978 20.0538 43.4023 20.7727C42.7146 21.4839 41.8901 22.0349 40.9288 22.4256C39.9754 22.8085 38.9204 23 37.7638 23ZM36.0406 5.93223V23H32.5239V5.93223H36.0406ZM53.7648 23.2344C52.7802 23.2344 51.8971 23.0781 51.1156 22.7656C50.3341 22.4451 49.6698 22.0036 49.1228 21.4409C48.5836 20.8783 48.1694 20.2257 47.8802 19.4833C47.5911 18.7331 47.4465 17.9359 47.4465 17.0919V16.623C47.4465 15.6618 47.5833 14.7826 47.8568 13.9855C48.1303 13.1884 48.521 12.4968 49.029 11.9106C49.5448 11.3245 50.17 10.8752 50.9046 10.5626C51.6392 10.2422 52.4676 10.0819 53.3897 10.0819C54.2884 10.0819 55.0856 10.2304 55.7811 10.5274C56.4766 10.8244 57.0588 11.2464 57.5277 11.7934C58.0044 12.3405 58.3639 12.9969 58.6062 13.7628C58.8485 14.5208 58.9696 15.3648 58.9696 16.2948V17.7015H48.8883V15.4508H55.6522V15.1929C55.6522 14.724 55.5662 14.3059 55.3943 13.9386C55.2301 13.5635 54.9801 13.2665 54.644 13.0477C54.308 12.8289 53.8782 12.7195 53.3546 12.7195C52.9091 12.7195 52.5262 12.8172 52.2058 13.0125C51.8854 13.2079 51.6236 13.4814 51.4204 13.8331C51.225 14.1848 51.0765 14.599 50.9749 15.0757C50.8811 15.5446 50.8343 16.0604 50.8343 16.623V17.0919C50.8343 17.5999 50.9046 18.0688 51.0453 18.4986C51.1937 18.9284 51.4008 19.2996 51.6665 19.6122C51.9401 19.9248 52.2683 20.1671 52.6512 20.339C53.042 20.5109 53.4835 20.5969 53.9759 20.5969C54.5854 20.5969 55.152 20.4797 55.6756 20.2452C56.207 20.003 56.6642 19.6396 57.0471 19.1551L58.6882 20.9369C58.4225 21.3198 58.0591 21.6871 57.5981 22.0388C57.1448 22.3904 56.5978 22.6796 55.9569 22.9062C55.3161 23.125 54.5854 23.2344 53.7648 23.2344ZM65.0418 20.5383L67.8551 10.3164H71.3836L67.1049 23H64.9714L65.0418 20.5383ZM63.1076 10.3164L65.9327 20.55L65.9913 23H63.8461L59.5674 10.3164H63.1076ZM76.4594 10.3164V23H73.0716V10.3164H76.4594ZM72.8606 7.01068C72.8606 6.51834 73.0325 6.11197 73.3764 5.79156C73.7202 5.47115 74.1813 5.31094 74.7596 5.31094C75.3301 5.31094 75.7873 5.47115 76.1311 5.79156C76.4828 6.11197 76.6586 6.51834 76.6586 7.01068C76.6586 7.50302 76.4828 7.9094 76.1311 8.22981C75.7873 8.55022 75.3301 8.71043 74.7596 8.71043C74.1813 8.71043 73.7202 8.55022 73.3764 8.22981C73.0325 7.9094 72.8606 7.50302 72.8606 7.01068ZM83.5514 23H80.1519V9.19104C80.1519 8.22981 80.3395 7.42097 80.7146 6.76451C81.0975 6.10025 81.6328 5.60009 82.3205 5.26405C83.0161 4.92019 83.8405 4.74827 84.794 4.74827C85.1066 4.74827 85.4074 4.77171 85.6966 4.8186C85.9857 4.85767 86.2671 4.90847 86.5406 4.97099L86.5054 7.51475C86.3569 7.47567 86.2007 7.44832 86.0365 7.43269C85.8724 7.41706 85.681 7.40924 85.4621 7.40924C85.0558 7.40924 84.708 7.47958 84.4189 7.62025C84.1375 7.7531 83.9226 7.95238 83.7741 8.21809C83.6256 8.48379 83.5514 8.80811 83.5514 9.19104V23ZM86.0834 10.3164V12.7078H78.2646V10.3164H86.0834ZM91.6164 21.5699L94.9807 10.3164H98.6029L93.5037 24.9107C93.3943 25.2312 93.2458 25.575 93.0582 25.9423C92.8785 26.3096 92.6323 26.6574 92.3197 26.9856C92.015 27.3216 91.6281 27.5952 91.1592 27.8062C90.6981 28.0172 90.1316 28.1227 89.4595 28.1227C89.1391 28.1227 88.8773 28.1031 88.6741 28.0641C88.4709 28.025 88.2286 27.9703 87.9473 27.9V25.4265C88.0333 25.4265 88.1231 25.4265 88.2169 25.4265C88.3107 25.4343 88.4006 25.4383 88.4865 25.4383C88.932 25.4383 89.2954 25.3875 89.5767 25.2859C89.858 25.1843 90.0847 25.028 90.2566 24.817C90.4285 24.6138 90.5653 24.3481 90.6669 24.0198L91.6164 21.5699ZM90.2097 10.3164L92.9645 19.5067L93.4451 23.0821L91.1475 23.3282L86.5875 10.3164H90.2097Z" fill="#E1E1E6"/>
<path d="M20.7812 19.7313C17.8937 25.025 17.9375 25.4625 16.5812 24.675C15.225 23.8875 14.7 23.1875 17.6312 17.9375C20.5625 12.6875 21.3937 12.7313 22.75 13.5188C24.0625 14.2625 23.6687 14.4813 20.7812 19.7313Z" fill="#454749"/>
<path d="M23.4937 21.3062C21.6562 24.675 19.3812 26.2937 18.2875 25.6812C16.9312 24.8937 17.6312 24.8937 20.5187 19.6C23.4062 14.3062 23.0562 13.6937 24.4125 14.4812C25.5062 15.0937 25.3312 17.9375 23.4937 21.3062Z" fill="#1C9146"/>
<path d="M7.21877 19.7313C10.1063 25.025 10.0625 25.4625 11.4188 24.675C12.775 23.8875 13.3 23.1875 10.3688 17.9375C7.43752 12.6875 6.60627 12.7313 5.25002 13.5188C3.93752 14.2625 4.33127 14.4813 7.21877 19.7313Z" fill="#454749"/>
<path d="M4.50624 21.3062C6.34374 24.675 8.61874 26.2937 9.71249 25.6812C11.0687 24.8937 10.3687 24.8937 7.48124 19.6C4.59374 14.3062 4.94374 13.6937 3.58749 14.4812C2.49374 15.0937 2.66874 17.9375 4.50624 21.3062Z" fill="#1C9146"/>
<path d="M4.94375 25.2438C4.94375 25.2438 7.30625 25.8563 7.48125 25.2438C8.575 21.7 2.49375 19.6 2.49375 15.575C2.49375 9.1 7.65625 3.85 14 3.85C20.3438 3.85 25.5062 9.1 25.5062 15.575C25.5062 19.6 19.425 21.7 20.5188 25.2438C20.6938 25.8563 23.0563 25.2438 23.0563 25.2438C25.55 22.7938 27.125 19.3812 27.125 15.575C27.125 8.18125 21.2625 2.1875 14 2.1875C6.7375 2.1875 0.875 8.18125 0.875 15.575C0.875 19.3812 2.45 22.7938 4.94375 25.2438Z" fill="#1DB954"/>
<path d="M6.51876 7.7C8.05001 7.39375 10.0188 5.20625 14 5.20625C17.9813 5.20625 19.9938 7.4375 21.4813 7.7C22.0938 7.83125 23.1438 6.86875 23.1438 6.86875C20.7375 4.1125 17.8938 2.7125 14 2.7125C10.1063 2.7125 7.26251 4.1125 4.85626 6.86875C4.85626 6.9125 5.90626 7.83125 6.51876 7.7Z" fill="#454749"/>
</svg>
